<svg width="14" height="14" viewBox="0 0 14 14" fill="none" xmlns="http://www.w3.org/2000/svg">
<path fill-rule="evenodd" clip-rule="evenodd" d="M3.17156 1.05042C2.58578 0.464638 1.63603 0.464637 1.05024 1.05042C0.464455 1.63621 0.464454 2.58596 1.05024 3.17174L4.87847 6.99998L1.05025 10.8282C0.464468 11.414 0.464469 12.3637 1.05026 12.9495C1.63604 13.5353 2.58579 13.5353 3.17158 12.9495L6.99979 9.1213L10.828 12.9495C11.4138 13.5353 12.3635 13.5353 12.9493 12.9495C13.5351 12.3637 13.5351 11.414 12.9493 10.8282L9.12111 6.99998L12.9493 3.17174C13.5351 2.58596 13.5351 1.63621 12.9493 1.05042C12.3636 0.464637 11.4138 0.464638 10.828 1.05042L6.99979 4.87866L3.17156 1.05042Z" fill="#A3B3D0"/>
</svg>
